<?xml version="1.0" standalone="no"?>
<!DOCTYPE svg PUBLIC "-//W3C//DTD SVG 20010904//EN"
 "http://www.w3.org/TR/2001/REC-SVG-20010904/DTD/svg10.dtd">
<svg version="1.0" xmlns="http://www.w3.org/2000/svg"
 width="609.000000pt" height="171.000000pt" viewBox="0 0 609.000000 171.000000"
 preserveAspectRatio="xMidYMid meet">
<metadata>
Created by potrace 1.16, written by Peter Selinger 2001-2019
</metadata>
<g transform="translate(0.000000,171.000000) scale(0.100000,-0.100000)"
fill="#000000" stroke="none">
<path d="M625 1402 c-103 -33 -205 -168 -205 -269 l0 -33 323 -2 322 -3 27
-105 c16 -58 46 -185 68 -284 28 -125 50 -196 72 -238 40 -75 134 -164 219
-205 134 -66 43 -63 1669 -63 1626 0 1535 -3 1669 63 85 41 179 130 219 205
22 42 44 113 72 238 22 99 52 226 68 284 l27 105 323 3 322 2 0 33 c0 67 -31
129 -94 192 -106 105 180 95 -2610 94 -2234 0 -2445 -2 -2491 -17z m3745 -452
l0 -200 -35 0 c-22 0 -38 6 -41 15 -5 13 -8 13 -27 0 -12 -8 -39 -15 -60 -15
-137 0 -160 254 -27 290 36 10 47 8 81 -8 l39 -19 0 68 0 69 35 0 35 0 0 -200z
m-2010 150 l0 -30 -80 0 -80 0 0 -50 0 -50 75 0 75 0 0 -30 0 -30 -75 0 -75 0
0 -80 0 -80 -40 0 -40 0 0 190 0 190 120 0 120 0 0 -30z m750 -25 c0 -34 1
-35 40 -35 38 0 40 -2 40 -30 0 -28 -2 -30 -40 -30 l-40 0 0 -74 c0 -81 6 -91
52 -88 22 2 29 -3 34 -24 8 -33 -7 -44 -64 -44 -32 0 -49 6 -67 25 -23 22 -25
32 -25 114 0 85 -1 90 -22 93 -17 2 -24 11 -26 31 -3 23 0 27 22 27 22 0 26 5
26 29 0 25 5 30 28 34 15 2 30 5 35 6 4 0 7 -15 7 -34z m-517 -39 c49 -20 69
-50 75 -106 l5 -50 -97 0 c-61 0 -96 -4 -96 -11 0 -49 66 -73 110 -40 28 20
29 20 52 1 l23 -20 -33 -30 c-27 -25 -40 -30 -85 -30 -70 0 -110 25 -132 84
-50 130 58 253 178 202z m318 -6 c24 -14 39 -70 39 -152 0 -55 3 -68 16 -68
11 0 14 -8 12 -27 -2 -23 -9 -29 -34 -31 -20 -2 -36 4 -48 17 -17 19 -18 19
-37 0 -48 -48 -149 -7 -149 61 0 59 19 75 118 100 31 8 42 16 42 30 0 16 -7
20 -38 20 -21 0 -48 -7 -61 -17 -23 -15 -25 -15 -37 2 -19 26 -17 38 8 54 50
31 122 36 169 11z m1089 -9 c33 -24 50 -58 50 -103 l0 -38 -95 0 c-61 0 -95
-4 -95 -11 0 -49 66 -73 110 -40 28 20 29 20 52 1 l23 -20 -33 -30 c-27 -25
-40 -30 -85 -30 -70 0 -110 25 -132 84 -23 60 -14 126 23 167 44 50 127 58
182 20z m-680 -84 c0 -106 7 -127 42 -127 10 0 27 9 38 20 17 17 20 33 20 115
l0 95 40 0 41 0 -3 -142 -3 -143 -33 -3 c-26 -3 -35 1 -39 16 -5 20 -5 20 -24
1 -30 -30 -99 -26 -130 7 -22 24 -24 35 -27 145 l-4 119 41 0 41 0 0 -103z
m330 86 c0 -15 1 -15 18 0 17 16 72 23 84 12 2 -3 3 -18 0 -35 -4 -26 -8 -30
-38 -30 -51 0 -64 -27 -64 -132 l0 -88 -35 0 -35 0 0 145 0 145 35 0 c26 0 35
-4 35 -17z"/>
<path d="M4186 958 c-23 -33 -21 -103 4 -128 55 -55 125 15 100 101 -5 18 -15
36 -22 41 -25 15 -67 8 -82 -14z"/>
</g>
</svg>
